<mxfile host="app.diagrams.net" agent="Mozilla/5.0 (Windows NT 10.0; Win64; x64) AppleWebKit/537.36 (KHTML, like Gecko) Chrome/124.0.0.0 Safari/537.36" version="26.1.1">
  <diagram name="第 1 页" id="qmWvTgKKXpyMI4gplTE8">
    <mxGraphModel dx="1387" dy="545" grid="0" gridSize="10" guides="1" tooltips="1" connect="1" arrows="1" fold="1" page="0" pageScale="1" pageWidth="827" pageHeight="1169" math="0" shadow="0">
      <root>
        <mxCell id="0" />
        <mxCell id="1" parent="0" />
        <mxCell id="nqPr3D_h-7oDzvkDlxJz-4" value="&lt;font style=&quot;font-size: 15px;&quot;&gt;Result&lt;/font&gt;" style="text;html=1;align=center;verticalAlign=middle;whiteSpace=wrap;rounded=0;" vertex="1" parent="1">
          <mxGeometry x="28" y="24" width="90" height="34" as="geometry" />
        </mxCell>
        <mxCell id="nqPr3D_h-7oDzvkDlxJz-6" value="" style="shape=flexArrow;endArrow=classic;html=1;rounded=0;fontSize=12;startSize=8;endSize=9.67;curved=1;width=13;" edge="1" parent="1">
          <mxGeometry width="50" height="50" relative="1" as="geometry">
            <mxPoint x="71" y="142" as="sourcePoint" />
            <mxPoint x="71" y="59" as="targetPoint" />
          </mxGeometry>
        </mxCell>
        <mxCell id="nqPr3D_h-7oDzvkDlxJz-7" value="&lt;span style=&quot;font-size:11.0pt;font-family:&amp;quot;Times New Roman&amp;quot;,serif;&lt;br/&gt;mso-fareast-font-family:Arial;mso-ansi-language:RU;mso-fareast-language:EN-US;&lt;br/&gt;mso-bidi-language:AR-SA&quot;&gt;Н_ВЕДОМОСТИ&lt;/span&gt;" style="text;html=1;align=center;verticalAlign=middle;whiteSpace=wrap;rounded=0;" vertex="1" parent="1">
          <mxGeometry x="-121" y="374" width="158" height="30" as="geometry" />
        </mxCell>
        <mxCell id="nqPr3D_h-7oDzvkDlxJz-8" value="&lt;span style=&quot;font-size:11.0pt;font-family:&amp;quot;Times New Roman&amp;quot;,serif;&lt;br/&gt;mso-fareast-font-family:Arial;mso-ansi-language:RU;mso-fareast-language:EN-US;&lt;br/&gt;mso-bidi-language:AR-SA&quot;&gt;Н_ЛЮДИ&lt;/span&gt;" style="text;html=1;align=center;verticalAlign=middle;whiteSpace=wrap;rounded=0;" vertex="1" parent="1">
          <mxGeometry x="150" y="374" width="118" height="30" as="geometry" />
        </mxCell>
        <mxCell id="nqPr3D_h-7oDzvkDlxJz-9" value="" style="shape=flexArrow;endArrow=classic;html=1;rounded=0;fontSize=12;startSize=8;endSize=8;curved=1;" edge="1" parent="1">
          <mxGeometry width="50" height="50" relative="1" as="geometry">
            <mxPoint x="-41" y="365" as="sourcePoint" />
            <mxPoint x="-41" y="289" as="targetPoint" />
            <Array as="points">
              <mxPoint x="-41" y="342" />
            </Array>
          </mxGeometry>
        </mxCell>
        <mxCell id="nqPr3D_h-7oDzvkDlxJz-10" value="&lt;span style=&quot;font-size:11.0pt;font-family:&amp;quot;Times New Roman&amp;quot;,serif;&lt;br/&gt;mso-fareast-font-family:Arial;mso-ansi-language:RU;mso-fareast-language:EN-US;&lt;br/&gt;mso-bidi-language:AR-SA&quot;&gt;Н_ВЕДОМОСТИ.ЧЛВК_ИД &lt;/span&gt;&lt;span style=&quot;font-size:&lt;br/&gt;11.0pt;font-family:&amp;quot;Times New Roman&amp;quot;,serif;mso-fareast-font-family:宋体;&lt;br/&gt;mso-ansi-language:RU;mso-fareast-language:ZH-CN;mso-bidi-language:AR-SA&quot;&gt;&amp;lt;=&amp;nbsp;&lt;/span&gt;&lt;span style=&quot;font-size:11.0pt;font-family:&amp;quot;Times New Roman&amp;quot;,serif;&lt;br/&gt;mso-fareast-font-family:宋体;mso-ansi-language:RU;mso-fareast-language:ZH-CN;&lt;br/&gt;mso-bidi-language:AR-SA&quot;&gt;117219&lt;/span&gt;" style="text;html=1;align=center;verticalAlign=middle;whiteSpace=wrap;rounded=0;" vertex="1" parent="1">
          <mxGeometry x="-183" y="248" width="249" height="30" as="geometry" />
        </mxCell>
        <mxCell id="nqPr3D_h-7oDzvkDlxJz-11" value="" style="shape=flexArrow;endArrow=classic;html=1;rounded=0;fontSize=12;startSize=8;endSize=8;curved=1;" edge="1" parent="1">
          <mxGeometry width="50" height="50" relative="1" as="geometry">
            <mxPoint x="205" y="367" as="sourcePoint" />
            <mxPoint x="205" y="287" as="targetPoint" />
          </mxGeometry>
        </mxCell>
        <mxCell id="nqPr3D_h-7oDzvkDlxJz-12" value="&lt;span style=&quot;font-size:11.0pt;font-family:&amp;quot;Times New Roman&amp;quot;,serif;&lt;br/&gt;mso-fareast-font-family:Arial;mso-ansi-language:RU;mso-fareast-language:EN-US;&lt;br/&gt;mso-bidi-language:AR-SA&quot;&gt;Н_ЛЮДИ&lt;/span&gt;&lt;span style=&quot;font-size:11.0pt;font-family:&amp;quot;Times New Roman&amp;quot;,serif;&lt;br/&gt;mso-fareast-font-family:Arial;mso-ansi-language:RU;mso-fareast-language:EN-US;&lt;br/&gt;mso-bidi-language:AR-SA&quot;&gt;.ОТЧЕСТВО &amp;gt; &#39;Георгиевич&#39;&lt;/span&gt;" style="text;html=1;align=center;verticalAlign=middle;whiteSpace=wrap;rounded=0;" vertex="1" parent="1">
          <mxGeometry x="93" y="248" width="257" height="30" as="geometry" />
        </mxCell>
        <mxCell id="nqPr3D_h-7oDzvkDlxJz-13" value="" style="shape=flexArrow;endArrow=classic;html=1;rounded=0;fontSize=12;startSize=8;endSize=8;curved=1;" edge="1" parent="1">
          <mxGeometry width="50" height="50" relative="1" as="geometry">
            <mxPoint x="-46" y="240" as="sourcePoint" />
            <mxPoint x="7" y="188" as="targetPoint" />
          </mxGeometry>
        </mxCell>
        <mxCell id="nqPr3D_h-7oDzvkDlxJz-14" value="" style="shape=flexArrow;endArrow=classic;html=1;rounded=0;fontSize=12;startSize=8;endSize=8;curved=1;" edge="1" parent="1">
          <mxGeometry width="50" height="50" relative="1" as="geometry">
            <mxPoint x="196.5" y="238" as="sourcePoint" />
            <mxPoint x="136" y="188" as="targetPoint" />
          </mxGeometry>
        </mxCell>
        <mxCell id="nqPr3D_h-7oDzvkDlxJz-15" value="&lt;span style=&quot;font-size: 10.5pt; font-family: Consolas;&quot;&gt;Н_ЛЮДИ.ИД = Н_ВЕДОМОСТИ.ЧЛВК_ИД&lt;/span&gt;" style="text;html=1;align=center;verticalAlign=middle;whiteSpace=wrap;rounded=0;" vertex="1" parent="1">
          <mxGeometry x="-55" y="146" width="266" height="30" as="geometry" />
        </mxCell>
        <mxCell id="nqPr3D_h-7oDzvkDlxJz-16" value="&lt;font style=&quot;font-size: 13px;&quot;&gt;Result&lt;/font&gt;" style="text;html=1;align=center;verticalAlign=middle;whiteSpace=wrap;rounded=0;" vertex="1" parent="1">
          <mxGeometry x="9" y="725" width="60" height="30" as="geometry" />
        </mxCell>
        <mxCell id="nqPr3D_h-7oDzvkDlxJz-17" value="&lt;font&gt;&lt;span style=&quot;font-family: &amp;quot;Times New Roman&amp;quot;, serif;&quot;&gt;Н_ОБУЧЕНИЯ&lt;/span&gt;&lt;span style=&quot;font-size:&lt;br/&gt;11.0pt;font-family:&amp;quot;Times New Roman&amp;quot;,serif;mso-fareast-font-family:Arial;&lt;br/&gt;mso-ansi-language:EN-US;mso-fareast-language:EN-US;mso-bidi-language:AR-SA&quot; lang=&quot;EN-US&quot;&gt;&amp;nbsp;&lt;/span&gt;&lt;/font&gt;" style="text;html=1;align=center;verticalAlign=middle;whiteSpace=wrap;rounded=0;" vertex="1" parent="1">
          <mxGeometry x="-216" y="1058" width="121" height="30" as="geometry" />
        </mxCell>
        <mxCell id="nqPr3D_h-7oDzvkDlxJz-18" value="&lt;font&gt;&lt;span style=&quot;font-family: &amp;quot;Times New Roman&amp;quot;, serif;&quot;&gt;Н_ЛЮДИ&lt;/span&gt;&lt;span style=&quot;&quot; lang=&quot;EN-US&quot;&gt;&amp;nbsp;&lt;/span&gt;&lt;/font&gt;" style="text;html=1;align=center;verticalAlign=middle;whiteSpace=wrap;rounded=0;" vertex="1" parent="1">
          <mxGeometry x="1" y="1060" width="89" height="30" as="geometry" />
        </mxCell>
        <mxCell id="nqPr3D_h-7oDzvkDlxJz-19" value="" style="shape=flexArrow;endArrow=classic;html=1;rounded=0;fontSize=12;startSize=8;endSize=8;curved=1;entryX=0.5;entryY=1;entryDx=0;entryDy=0;" edge="1" parent="1" target="nqPr3D_h-7oDzvkDlxJz-20">
          <mxGeometry width="50" height="50" relative="1" as="geometry">
            <mxPoint x="-158" y="1058" as="sourcePoint" />
            <mxPoint x="-158" y="1008" as="targetPoint" />
          </mxGeometry>
        </mxCell>
        <mxCell id="nqPr3D_h-7oDzvkDlxJz-20" value="&lt;font style=&quot;font-size: 11px;&quot;&gt;&lt;span style=&quot;font-family: &amp;quot;Times New Roman&amp;quot;, serif;&quot;&gt;Н_ОБУЧЕНИЯ&lt;/span&gt;&lt;span style=&quot;font-family: &amp;quot;Times New Roman&amp;quot;, serif;&quot; lang=&quot;EN-US&quot;&gt;&amp;nbsp;&lt;/span&gt;&lt;span style=&quot;font-family: &amp;quot;Times New Roman&amp;quot;, serif;&quot;&gt;.ЧЛВК_ИД &amp;lt; 105590&lt;/span&gt;&lt;/font&gt;" style="text;html=1;align=center;verticalAlign=middle;whiteSpace=wrap;rounded=0;" vertex="1" parent="1">
          <mxGeometry x="-273" y="976" width="235" height="30" as="geometry" />
        </mxCell>
        <mxCell id="nqPr3D_h-7oDzvkDlxJz-21" value="" style="shape=flexArrow;endArrow=classic;html=1;rounded=0;fontSize=12;startSize=8;endSize=8;curved=1;" edge="1" parent="1" target="nqPr3D_h-7oDzvkDlxJz-22">
          <mxGeometry width="50" height="50" relative="1" as="geometry">
            <mxPoint x="44" y="1061" as="sourcePoint" />
            <mxPoint x="44" y="1009" as="targetPoint" />
          </mxGeometry>
        </mxCell>
        <mxCell id="nqPr3D_h-7oDzvkDlxJz-22" value="&lt;font style=&quot;font-size: 11px;&quot;&gt;&lt;span style=&quot;font-family: &amp;quot;Times New Roman&amp;quot;, serif;&quot;&gt;Н_ЛЮДИ&lt;/span&gt;&lt;span style=&quot;&quot; lang=&quot;EN-US&quot;&gt;&amp;nbsp;&lt;/span&gt;&lt;span style=&quot;font-family: &amp;quot;Times New Roman&amp;quot;, serif;&quot;&gt;.ОТЧЕСТВО &amp;lt; &#39;Георгиевич&#39;&lt;/span&gt;&lt;/font&gt;" style="text;html=1;align=center;verticalAlign=middle;whiteSpace=wrap;rounded=0;" vertex="1" parent="1">
          <mxGeometry x="-85" y="976" width="267" height="30" as="geometry" />
        </mxCell>
        <mxCell id="nqPr3D_h-7oDzvkDlxJz-23" value="" style="shape=flexArrow;endArrow=classic;html=1;rounded=0;fontSize=12;startSize=8;endSize=8;curved=1;entryX=0.25;entryY=1;entryDx=0;entryDy=0;exitX=0.454;exitY=0.002;exitDx=0;exitDy=0;exitPerimeter=0;" edge="1" parent="1" source="nqPr3D_h-7oDzvkDlxJz-20" target="nqPr3D_h-7oDzvkDlxJz-25">
          <mxGeometry width="50" height="50" relative="1" as="geometry">
            <mxPoint x="-159.96" y="983" as="sourcePoint" />
            <mxPoint x="-197.99773584905657" y="839" as="targetPoint" />
          </mxGeometry>
        </mxCell>
        <mxCell id="nqPr3D_h-7oDzvkDlxJz-24" value="" style="shape=flexArrow;endArrow=classic;html=1;rounded=0;fontSize=12;startSize=8;endSize=8;curved=1;entryX=0.75;entryY=1;entryDx=0;entryDy=0;exitX=0.5;exitY=0;exitDx=0;exitDy=0;" edge="1" parent="1" source="nqPr3D_h-7oDzvkDlxJz-22" target="nqPr3D_h-7oDzvkDlxJz-25">
          <mxGeometry width="50" height="50" relative="1" as="geometry">
            <mxPoint x="57" y="976" as="sourcePoint" />
            <mxPoint x="14" y="922" as="targetPoint" />
          </mxGeometry>
        </mxCell>
        <mxCell id="nqPr3D_h-7oDzvkDlxJz-25" value="&lt;span style=&quot;font-family: Consolas;&quot;&gt;&lt;font&gt;Н_ЛЮДИ.ИД = Н_ОБУЧЕНИЯ.ЧЛВК_ИД&lt;/font&gt;&lt;/span&gt;" style="text;html=1;align=center;verticalAlign=middle;whiteSpace=wrap;rounded=0;" vertex="1" parent="1">
          <mxGeometry x="-183" y="892" width="248" height="30" as="geometry" />
        </mxCell>
        <mxCell id="nqPr3D_h-7oDzvkDlxJz-26" value="&lt;span style=&quot;font-family: &amp;quot;Times New Roman&amp;quot;, serif;&quot;&gt;&lt;font&gt;Н_УЧЕНИКИ&lt;/font&gt;&lt;/span&gt;" style="text;html=1;align=center;verticalAlign=middle;whiteSpace=wrap;rounded=0;" vertex="1" parent="1">
          <mxGeometry x="112" y="892" width="70" height="30" as="geometry" />
        </mxCell>
        <mxCell id="nqPr3D_h-7oDzvkDlxJz-28" value="" style="shape=flexArrow;endArrow=classic;html=1;rounded=0;fontSize=12;startSize=8;endSize=8;curved=1;exitX=0.5;exitY=0;exitDx=0;exitDy=0;entryX=0.383;entryY=1.048;entryDx=0;entryDy=0;entryPerimeter=0;" edge="1" parent="1" source="nqPr3D_h-7oDzvkDlxJz-25" target="nqPr3D_h-7oDzvkDlxJz-30">
          <mxGeometry width="50" height="50" relative="1" as="geometry">
            <mxPoint x="-67" y="892" as="sourcePoint" />
            <mxPoint x="-17" y="842" as="targetPoint" />
          </mxGeometry>
        </mxCell>
        <mxCell id="nqPr3D_h-7oDzvkDlxJz-29" value="" style="shape=flexArrow;endArrow=classic;html=1;rounded=0;fontSize=12;startSize=8;endSize=8;curved=1;exitX=0.457;exitY=0.067;exitDx=0;exitDy=0;exitPerimeter=0;entryX=0.626;entryY=1.048;entryDx=0;entryDy=0;entryPerimeter=0;" edge="1" parent="1" source="nqPr3D_h-7oDzvkDlxJz-26" target="nqPr3D_h-7oDzvkDlxJz-30">
          <mxGeometry width="50" height="50" relative="1" as="geometry">
            <mxPoint x="141" y="892" as="sourcePoint" />
            <mxPoint x="92" y="838" as="targetPoint" />
          </mxGeometry>
        </mxCell>
        <mxCell id="nqPr3D_h-7oDzvkDlxJz-30" value="&lt;span style=&quot;font-family: Consolas;&quot;&gt;&lt;font&gt;Н_ОБУЧЕНИЯ.ЧЛВК_ИД = Н_УЧЕНИКИ.ЧЛВК_ИД&lt;/font&gt;&lt;/span&gt;" style="text;html=1;align=center;verticalAlign=middle;whiteSpace=wrap;rounded=0;" vertex="1" parent="1">
          <mxGeometry x="-121" y="812" width="304" height="30" as="geometry" />
        </mxCell>
        <mxCell id="nqPr3D_h-7oDzvkDlxJz-31" value="" style="shape=flexArrow;endArrow=classic;html=1;rounded=0;fontSize=12;startSize=8;endSize=8;curved=1;entryX=0.5;entryY=1;entryDx=0;entryDy=0;exitX=0.523;exitY=0.13;exitDx=0;exitDy=0;exitPerimeter=0;" edge="1" parent="1" source="nqPr3D_h-7oDzvkDlxJz-30" target="nqPr3D_h-7oDzvkDlxJz-16">
          <mxGeometry width="50" height="50" relative="1" as="geometry">
            <mxPoint x="32" y="812" as="sourcePoint" />
            <mxPoint x="82" y="762" as="targetPoint" />
          </mxGeometry>
        </mxCell>
      </root>
    </mxGraphModel>
  </diagram>
</mxfile>
